P2
100 100
255
127 127 127 127 127 127 127 127 127 127 127 127 127 127 127 127 127 127 127 127 127 127 127 127 127 127 127 127 127 127 127 127 127 127 127 127 127 127 127 127 127 127 127 127 127 127 127 127 127 127 127 127 127 127 127 127 127 127 127 127 127 127 127 127 127 127 127 127 127 127 127 127 127 127 127 127 127 127 127 127 127 127 127 127 127 127 127 127 127 127 127 127 127 127 127 127 127 127 127 127 
127 127 127 127 127 127 127 127 127 127 127 127 127 127 127 127 127 127 127 127 127 127 127 127 127 127 127 127 127 127 255 127 127 127 127 127 127 127 127 127 127 127 127 127 127 255 127 127 127 127 127 127 127 127 127 127 127 127 127 127 127 127 127 127 127 127 127 127 127 127 127 127 127 127 127 127 127 127 127 127 127 127 127 127 127 127 127 127 127 127 127 127 127 127 127 127 127 127 127 127 
127 127 127 127 255 127 127 255 127 127 127 127 127 127 127 127 127 127 127 127 127 127 127 127 127 255 127 127 127 127 127 127 127 127 127 127 127 127 127 127 127 127 255 127 127 127 127 127 127 127 127 127 127 127 127 127 127 127 127 127 127 127 127 127 127 127 127 127 127 127 127 127 127 127 127 127 127 127 127 127 127 127 127 127 127 127 127 127 127 127 127 127 127 127 127 127 127 127 127 127 
127 127 127 127 127 127 127 127 127 127 127 127 127 127 255 127 127 127 255 127 127 127 127 127 127 127 127 127 127 127 127 127 127 127 127 127 127 127 127 127 127 127 127 127 127 127 127 127 127 127 127 255 127 127 127 127 127 127 127 127 127 255 127 127 127 127 127 127 127 127 127 127 127 127 255 127 127 127 127 127 127 127 127 127 127 127 127 127 127 127 127 127 127 127 127 127 127 127 127 127 
127 127 127 127 127 127 127 127 127 127 127 127 127 127 127 127 127 127 127 127 127 127 127 127 127 127 127 127 127 127 127 127 127 127 127 127 127 127 127 127 127 127 127 127 127 127 127 127 127 127 127 127 127 127 127 127 127 127 127 127 127 127 127 127 127 255 127 127 127 255 127 127 127 127 127 127 127 255 127 127 127 127 127 127 127 127 127 127 127 127 127 127 127 127 127 127 127 255 127 127 
127 127 127 127 255 127 127 127 127 127 255 127 127 127 127 127 127 127 127 127 127 127 127 127 127 127 127 127 127 127 127 127 127 127 127 127 127 127 255 127 127 127 127 127 127 127 127 127 127 127 127 127 127 127 127 127 127 127 127 127 127 127 127 127 127 127 127 255 127 255 127 127 127 127 127 127 127 127 127 127 127 127 127 127 127 127 127 255 127 127 127 127 255 127 127 127 127 127 127 127 
127 127 127 127 127 127 127 127 127 127 127 127 127 127 127 127 127 127 127 127 127 127 127 127 127 127 255 127 127 255 127 127 127 127 127 127 127 127 127 127 127 127 127 127 127 127 127 127 127 127 127 127 127 127 127 127 127 127 127 127 127 127 127 127 127 127 127 127 127 127 127 127 127 127 127 127 127 127 255 127 127 127 127 127 127 127 127 127 127 127 127 255 127 127 127 127 127 127 127 127 
127 127 127 127 127 127 127 127 127 127 127 127 127 127 127 127 127 127 127 127 127 127 255 127 127 127 127 127 127 127 127 127 127 127 127 127 127 127 127 255 127 127 127 127 127 127 127 127 127 127 127 127 127 127 127 127 255 127 127 255 127 127 127 127 127 127 127 127 127 127 127 127 127 127 127 255 127 127 127 127 127 127 127 127 127 127 127 127 127 127 127 127 127 127 127 127 127 127 127 127 
127 127 127 127 127 127 127 127 127 127 127 127 127 127 127 127 255 127 127 127 127 127 127 127 127 127 255 255 127 127 127 127 127 127 127 127 127 127 127 127 127 127 127 127 127 127 127 127 127 127 127 127 127 127 127 127 127 127 127 127 127 255 127 127 127 127 127 127 127 127 127 127 127 127 127 127 127 127 127 127 127 127 127 127 127 127 127 127 127 127 127 127 127 255 127 127 127 127 127 127 
127 127 127 127 127 127 127 127 127 127 255 127 127 127 127 127 127 127 127 127 127 127 127 127 127 127 127 127 127 127 127 127 127 127 127 127 127 127 127 127 127 127 127 127 127 127 127 127 127 127 127 127 127 127 127 127 127 127 127 127 127 127 127 127 127 127 127 127 127 127 127 127 127 127 127 127 127 127 127 127 127 127 127 127 127 127 127 127 127 127 127 127 127 127 127 127 127 127 127 127 
127 127 127 127 127 127 127 127 127 127 127 255 127 127 127 127 255 127 127 127 127 127 127 127 127 127 127 127 127 127 127 127 127 127 127 127 127 127 127 127 127 127 127 127 127 127 127 127 127 127 127 127 127 127 127 127 127 127 127 127 127 127 127 127 127 127 127 127 127 127 127 127 127 127 127 127 127 127 127 127 127 127 127 127 127 127 127 127 127 127 127 127 127 127 127 127 127 127 127 127 
127 127 127 127 255 127 127 127 127 127 127 127 127 127 127 127 127 127 255 255 127 127 127 127 127 127 127 127 127 127 127 127 127 127 127 127 255 127 127 127 127 127 127 127 127 127 127 127 127 127 127 127 255 127 127 127 255 127 127 127 127 127 127 127 127 127 127 127 127 127 127 127 127 127 127 127 127 127 127 127 127 127 127 127 127 127 127 127 127 127 127 127 127 255 127 127 127 127 127 127 
127 127 127 127 127 127 127 127 127 127 255 127 127 127 127 127 127 127 127 127 127 127 127 127 127 127 127 255 127 127 127 127 127 127 127 127 127 127 127 127 0 127 127 127 127 127 127 127 127 127 127 127 127 127 127 127 127 127 127 127 127 127 127 127 127 127 127 127 127 127 127 127 127 127 127 127 127 127 127 127 127 255 127 127 127 127 127 127 127 127 127 127 127 127 127 127 127 127 127 127 
127 127 127 127 127 127 127 127 255 127 127 127 127 127 127 127 127 127 127 127 127 127 127 127 127 127 127 127 127 127 127 127 127 127 127 127 255 127 127 127 127 127 127 127 127 127 127 127 0 127 127 127 127 127 127 255 127 127 127 127 255 127 127 127 127 127 127 127 127 127 127 127 127 127 127 127 127 127 127 127 127 127 127 127 127 127 127 127 127 127 127 127 127 127 127 127 127 127 127 127 
127 127 127 127 127 127 127 127 127 127 127 127 127 127 127 127 127 127 127 127 127 127 127 127 127 127 127 127 127 127 127 127 127 127 127 127 127 127 127 127 127 127 127 127 127 127 127 127 127 127 127 127 127 127 127 127 127 127 127 127 127 127 127 127 127 127 255 127 127 127 127 127 127 127 127 127 127 127 127 127 127 127 127 127 127 255 127 127 127 127 127 127 127 127 255 127 127 127 255 127 
127 127 127 127 127 127 127 127 127 127 127 127 127 127 127 127 127 127 127 127 127 127 127 127 127 255 127 127 255 127 127 127 127 127 127 127 127 127 127 127 127 127 127 127 0 127 127 127 127 127 127 127 127 127 127 127 127 127 127 127 127 127 127 127 127 127 127 127 127 127 127 127 127 127 127 127 127 127 127 127 127 127 127 127 127 127 127 127 127 127 127 127 127 127 127 127 127 127 127 127 
127 127 127 127 127 127 127 127 127 127 127 127 127 127 127 127 255 127 127 127 127 127 127 127 127 127 127 127 127 127 127 127 255 127 127 127 127 127 127 127 127 127 127 127 127 127 127 127 127 127 127 127 255 127 127 127 127 127 127 127 127 127 127 127 127 127 127 127 127 127 127 127 127 127 127 127 127 127 127 127 127 127 127 127 127 127 127 127 127 127 127 127 127 127 255 127 127 127 127 127 
127 127 127 127 127 127 127 127 127 127 127 127 127 127 127 127 127 127 127 127 127 127 127 127 127 127 127 255 127 127 127 127 127 127 127 127 127 127 127 127 127 127 0 127 127 127 127 127 127 127 0 127 127 127 127 127 127 127 127 127 127 127 127 127 127 255 127 127 127 127 127 127 127 127 127 127 127 127 127 127 127 127 127 127 127 127 127 127 127 127 127 127 127 127 127 127 127 127 127 127 
127 127 127 127 127 127 127 127 127 127 127 127 127 127 127 127 127 127 127 255 127 127 127 127 127 127 127 127 127 127 127 127 127 127 127 127 127 127 127 127 127 127 127 127 127 127 0 127 127 127 127 127 127 127 255 127 127 127 127 127 127 127 255 127 127 127 127 127 127 127 255 127 127 127 127 127 127 127 127 127 127 127 127 127 127 127 127 127 127 127 127 127 127 127 255 127 127 127 127 127 
127 127 127 127 127 127 127 127 127 127 255 127 127 127 127 127 127 127 127 127 127 127 127 127 127 127 127 127 127 127 127 127 127 127 127 127 127 127 127 0 127 0 127 127 127 127 127 127 127 127 127 127 127 127 127 127 127 127 127 127 127 127 255 127 127 127 127 127 127 127 127 127 127 127 127 127 127 127 127 127 127 255 127 127 127 127 127 127 127 127 127 127 127 127 127 255 127 127 127 127 
127 127 127 127 127 127 127 127 127 127 127 127 127 127 127 127 127 127 127 127 127 127 127 127 127 127 127 127 127 127 127 127 127 127 127 127 127 127 127 127 0 127 127 127 127 0 127 127 127 127 127 127 127 127 127 127 127 127 127 127 127 127 127 127 127 127 127 127 127 127 127 127 127 127 127 127 127 127 127 127 127 127 127 127 127 127 127 127 127 127 255 127 127 127 127 127 127 127 127 127 
127 127 127 127 127 255 127 127 127 127 127 127 127 127 127 127 127 127 127 127 127 127 127 127 127 127 127 127 127 127 127 127 127 127 0 127 127 127 127 127 127 127 127 127 127 127 127 127 127 127 127 255 127 127 127 127 127 127 127 127 127 255 127 127 127 127 127 127 127 127 127 127 127 127 127 127 127 255 127 127 127 127 127 127 255 127 127 127 127 127 127 127 127 127 127 127 127 127 127 127 
127 127 127 127 127 127 127 127 127 127 127 127 127 255 127 127 127 127 127 127 127 127 127 127 127 127 127 127 127 127 127 127 127 127 127 127 127 127 127 0 127 127 127 127 127 127 127 127 127 127 127 127 127 127 127 127 127 127 127 127 127 127 127 127 127 127 127 127 127 127 127 127 127 127 127 127 127 127 127 127 127 127 127 127 127 127 127 255 255 127 127 127 127 127 127 127 127 127 127 127 
127 127 127 127 127 127 255 127 127 127 127 127 127 127 127 127 127 127 127 127 127 127 127 127 255 127 127 127 127 127 127 0 127 127 127 127 127 127 127 0 127 127 127 127 127 127 127 127 127 127 127 127 127 127 127 127 127 127 127 127 127 127 127 127 127 127 127 127 127 127 127 127 255 127 127 127 127 127 127 127 127 127 127 127 127 127 127 127 127 127 127 127 127 127 127 255 255 127 127 255 
127 127 255 127 127 127 127 255 127 127 127 127 127 127 127 127 127 127 127 127 127 127 127 127 127 127 127 127 127 127 127 127 127 127 127 127 0 127 127 127 127 127 127 127 127 127 127 127 127 127 0 127 127 127 127 127 255 127 127 127 127 127 127 127 127 127 255 255 127 127 127 127 127 127 127 127 127 127 127 127 127 127 127 127 127 127 127 127 127 127 127 127 127 127 127 127 127 127 127 127 
127 127 127 127 127 127 127 127 255 127 127 127 127 127 127 127 127 127 127 127 255 127 127 127 127 127 127 0 127 127 127 127 0 127 127 127 127 127 127 127 0 127 127 127 127 127 127 127 127 127 127 127 127 127 127 255 127 127 127 127 127 127 127 127 127 127 127 127 127 127 127 127 127 127 127 127 255 127 127 127 127 127 127 127 127 127 127 127 127 127 127 127 255 127 127 127 255 127 127 127 
127 127 127 255 127 127 127 127 255 127 127 127 127 127 127 127 127 255 127 127 127 127 127 127 0 127 127 127 127 127 127 127 127 127 127 127 127 127 127 127 127 127 127 127 127 127 127 127 127 127 127 127 127 127 127 255 127 127 127 127 127 127 127 127 127 127 127 127 127 127 255 127 127 127 127 127 127 255 127 255 127 127 127 127 127 127 127 127 127 127 127 127 127 127 127 127 127 127 127 127 
127 127 127 127 127 127 127 127 127 127 127 127 127 127 127 127 127 127 127 127 127 127 127 127 127 127 0 127 127 127 127 127 127 127 127 127 0 127 127 127 127 127 127 127 127 127 127 127 127 127 127 127 127 127 127 127 127 127 127 127 127 127 127 127 255 127 127 127 127 127 127 127 127 127 127 127 127 127 127 127 127 127 127 127 127 127 127 127 255 127 127 127 127 127 127 127 127 127 255 127 
127 127 127 127 127 127 127 127 127 127 127 127 127 127 127 127 127 127 127 127 127 127 0 127 127 127 127 127 127 127 127 127 127 127 127 127 127 127 127 127 127 127 127 127 127 127 127 127 127 127 127 127 127 127 127 127 127 127 127 127 127 127 127 127 127 127 127 127 127 127 127 127 127 127 127 127 127 127 127 127 127 127 127 127 255 127 127 127 127 127 127 127 127 127 127 127 127 127 127 127 
127 127 127 127 127 127 127 127 127 255 255 127 127 127 127 127 127 127 255 127 127 127 127 127 127 127 127 127 127 127 127 127 127 127 127 127 127 127 127 127 0 127 127 127 127 127 127 127 127 127 127 127 127 127 255 127 127 127 127 127 127 127 127 127 127 127 127 127 127 127 127 127 127 127 127 127 127 127 127 127 127 127 127 127 127 127 127 127 127 127 127 127 127 127 127 127 127 127 127 127 
127 127 127 127 127 127 127 127 127 127 127 127 127 127 127 127 255 127 127 127 127 127 127 127 127 127 127 127 127 127 127 127 127 127 127 127 127 0 127 127 127 127 127 127 127 127 127 127 127 127 127 127 127 127 127 127 127 127 127 127 127 127 127 127 127 127 127 127 127 127 127 127 127 127 127 255 127 127 127 127 127 127 127 127 127 127 127 127 127 127 127 127 127 127 127 127 127 127 127 127 
127 127 127 127 127 127 127 127 127 127 127 127 127 127 127 255 127 127 255 127 127 127 127 127 127 127 127 127 127 127 127 0 127 127 127 127 127 127 127 127 127 0 127 127 127 127 127 127 127 127 127 127 127 127 127 127 127 127 127 127 127 127 127 127 127 127 127 127 127 127 127 127 127 127 127 127 127 127 127 255 127 127 255 127 127 127 127 127 255 127 127 127 127 127 127 127 127 255 127 127 
127 255 127 127 127 127 127 127 127 127 127 127 127 127 255 127 127 127 127 127 127 127 127 127 127 127 127 127 127 127 127 127 127 127 127 127 127 127 127 127 127 127 127 127 127 127 127 0 127 127 127 127 127 127 127 255 127 127 127 127 127 127 127 127 127 127 127 127 127 127 255 127 127 127 127 127 127 127 127 255 255 127 127 127 127 127 127 127 127 127 127 127 127 127 127 127 127 127 127 127 
127 127 127 127 127 255 127 127 127 127 127 255 127 127 127 127 127 127 127 127 127 127 127 0 127 127 127 127 127 127 127 127 127 127 127 127 127 127 127 0 0 127 127 127 127 127 127 127 127 127 127 127 127 127 127 127 127 127 127 127 127 127 127 127 127 127 127 127 127 127 127 127 127 127 127 127 127 127 127 255 127 127 127 127 127 127 127 127 255 127 127 127 127 127 127 127 127 127 127 127 
127 127 127 127 127 127 127 127 127 127 127 127 127 127 127 127 127 127 127 127 127 127 127 127 0 127 127 127 127 127 127 127 127 127 127 127 127 127 127 127 127 127 127 127 127 127 127 0 127 127 127 127 127 127 127 127 127 127 127 255 127 127 127 127 127 127 127 127 127 127 127 127 127 127 127 127 127 127 255 127 127 255 255 127 127 127 127 127 127 127 127 127 127 127 127 127 127 127 127 127 
127 127 127 127 127 127 127 127 127 127 127 127 127 127 255 127 127 127 127 127 127 127 127 127 127 127 127 127 127 127 127 127 0 127 127 127 127 127 0 127 127 127 127 127 0 127 127 127 127 127 127 255 127 255 127 127 127 127 127 127 127 127 127 127 127 127 127 127 127 127 127 127 127 127 127 127 127 127 127 127 127 127 127 127 127 127 127 127 127 127 127 255 127 127 127 255 127 127 127 127 
127 127 127 127 127 127 127 127 127 127 127 127 127 127 127 127 127 127 127 127 127 127 127 127 127 127 127 127 127 127 127 127 127 127 127 127 127 127 127 127 127 127 127 127 127 127 127 127 127 127 127 127 127 127 127 255 127 127 127 127 127 127 127 255 127 127 255 127 127 127 127 127 127 127 127 127 255 127 127 127 127 127 127 127 127 127 127 127 127 127 127 127 127 127 127 255 127 127 127 255 
127 127 127 127 127 127 127 127 127 127 127 127 127 127 127 127 127 127 127 127 127 127 127 127 127 127 127 127 127 127 127 127 127 127 127 127 127 127 127 127 127 127 0 127 127 127 127 127 127 127 127 127 127 127 127 127 127 127 127 127 127 127 127 127 255 127 127 127 127 127 127 127 127 127 127 127 127 127 127 127 127 127 127 127 127 127 127 127 127 127 127 127 127 127 127 127 127 127 127 127 
127 127 255 127 127 127 127 127 127 127 127 127 127 127 127 127 127 127 127 127 127 127 127 127 127 127 127 127 0 127 127 127 127 127 127 127 127 127 127 127 127 127 127 127 127 127 127 127 127 127 127 127 127 127 127 127 127 127 127 127 127 127 127 127 127 127 127 127 127 127 127 127 127 127 127 127 127 127 127 127 127 127 127 127 127 127 127 127 127 127 127 127 255 127 127 255 127 127 127 127 
127 127 127 127 127 127 127 127 127 127 127 127 127 127 127 127 127 127 127 127 0 127 127 127 127 127 127 127 127 127 127 127 127 127 127 127 127 127 0 127 127 127 127 127 127 127 127 127 127 127 0 127 127 127 127 127 127 127 127 127 127 127 127 127 127 127 127 127 127 127 127 255 127 127 127 127 127 127 127 127 127 127 127 127 127 127 255 255 127 127 127 127 127 127 127 127 127 255 127 127 
127 127 127 127 255 127 127 127 127 127 127 127 127 127 127 127 127 127 127 0 127 127 127 127 127 0 127 127 127 127 127 127 127 127 127 127 127 127 127 127 127 127 127 127 127 127 127 0 127 127 127 127 127 127 127 127 127 127 127 127 127 127 127 127 127 127 127 127 127 127 127 127 127 127 127 127 127 127 127 127 127 127 127 127 127 127 127 127 255 127 127 127 127 127 127 127 127 127 127 127 
127 127 127 127 127 127 127 127 127 127 127 127 127 127 127 127 127 127 127 127 127 127 127 127 127 127 127 127 127 127 127 127 127 127 127 127 127 127 127 0 127 127 127 127 127 127 127 127 127 127 127 127 127 127 127 127 127 127 127 127 127 127 127 127 127 127 127 127 127 127 127 127 127 127 127 127 127 127 127 127 127 127 127 127 127 127 127 127 127 127 127 127 127 127 127 127 127 127 127 127 
127 127 127 127 127 127 127 127 127 127 127 127 127 127 127 127 127 127 127 127 127 127 127 127 127 127 127 127 127 127 127 127 127 127 127 127 127 127 127 127 127 127 127 127 127 127 127 127 127 127 127 127 127 127 127 127 255 127 127 127 127 127 127 127 127 127 127 127 127 127 255 127 127 127 127 127 127 127 255 127 127 127 127 127 127 127 127 127 127 127 127 127 127 127 127 127 255 127 127 127 
127 127 127 127 127 127 127 127 127 127 127 127 127 127 127 127 127 127 127 127 127 127 127 127 127 127 127 127 127 127 127 127 127 127 127 127 127 127 127 127 127 127 127 127 127 127 127 127 127 127 127 127 127 127 127 127 127 127 127 127 127 127 127 127 127 127 127 127 127 127 127 127 127 127 127 127 127 127 127 127 127 127 127 127 127 127 127 127 127 127 127 127 127 127 127 127 127 127 127 255 
127 127 127 127 127 127 127 127 127 127 127 127 127 127 127 127 127 127 127 127 127 127 127 127 127 127 127 127 127 127 127 127 127 127 127 127 127 127 127 127 127 0 127 127 127 0 127 127 127 127 127 127 127 127 127 127 127 127 127 127 255 127 127 127 127 127 127 127 127 127 127 127 127 127 127 127 127 127 127 127 127 127 127 127 127 255 127 127 127 127 127 127 127 127 127 127 127 127 127 127 
127 127 127 127 127 127 127 127 127 127 127 127 127 127 127 127 127 127 127 127 127 0 127 127 127 127 127 127 127 127 127 127 127 127 127 127 0 127 127 127 127 127 0 127 127 127 127 127 127 127 127 127 255 127 127 127 127 127 127 127 127 127 127 255 127 127 127 127 127 127 127 127 127 127 127 255 127 127 127 127 127 127 127 127 127 127 127 127 127 127 127 127 127 127 127 127 127 127 127 127 
127 127 127 127 127 127 127 127 127 127 127 127 127 127 127 127 127 127 127 127 127 127 0 127 127 127 127 127 127 127 127 127 127 127 127 127 127 127 127 127 127 127 127 127 127 127 127 127 127 127 127 127 127 127 127 127 127 127 127 127 127 127 127 127 127 127 127 127 127 127 127 127 127 127 127 127 127 127 127 127 127 127 127 127 127 127 127 127 127 127 127 255 127 255 127 127 127 127 127 127 
127 127 127 127 127 0 127 127 127 127 127 127 127 127 127 127 127 127 127 127 127 127 127 127 127 127 127 127 127 127 127 127 127 127 127 127 127 127 127 127 127 127 127 127 127 127 127 127 127 127 127 127 127 127 127 127 127 127 127 127 127 127 127 255 127 127 127 127 127 255 127 127 127 127 127 127 127 127 127 127 127 127 127 127 127 127 127 127 127 127 127 127 127 127 127 127 127 127 127 127 
127 127 127 127 127 127 127 127 127 0 127 127 127 127 127 127 127 127 127 127 127 127 0 127 127 127 127 127 127 127 127 127 127 127 127 127 127 127 127 127 127 127 127 127 127 127 127 127 127 127 127 127 127 127 127 127 255 127 127 127 127 127 127 127 127 127 127 127 255 127 127 127 127 127 127 127 127 127 127 127 127 127 127 127 127 127 127 127 127 127 127 127 127 127 127 127 127 127 127 127 
127 127 127 127 127 127 127 127 127 127 127 127 127 127 127 127 127 127 0 127 127 127 127 127 127 127 127 127 127 127 127 127 127 127 127 127 127 127 127 127 127 0 127 127 127 127 127 127 127 127 127 127 127 127 127 127 127 127 127 127 127 127 127 255 127 127 127 127 127 127 127 127 127 127 127 127 127 127 127 127 127 127 127 127 127 127 127 127 127 127 127 127 127 127 127 127 127 127 127 127 
127 127 127 0 127 127 127 127 127 127 127 127 0 127 127 127 127 127 127 127 127 127 127 127 127 127 127 127 127 127 0 127 127 127 127 0 127 127 127 127 127 127 127 127 127 127 127 127 127 127 127 127 127 127 127 127 127 127 127 0 127 127 127 127 127 127 127 127 127 127 127 127 127 127 127 127 127 127 127 127 127 127 127 127 127 127 127 127 127 127 127 127 127 127 127 0 127 127 127 127 
127 127 127 127 127 127 127 127 127 127 127 127 127 127 127 127 127 127 127 127 127 127 127 127 127 127 127 127 127 127 127 127 127 127 127 127 127 127 127 127 127 127 127 127 127 127 127 127 127 127 127 127 127 127 127 127 127 127 127 127 127 0 127 127 127 127 127 127 127 127 127 127 127 127 127 127 127 127 127 127 127 127 127 127 127 127 127 127 127 127 127 127 127 127 127 127 127 127 127 127 
127 127 127 127 255 127 127 127 127 127 127 127 127 127 127 127 127 127 127 127 127 127 127 127 127 255 127 127 127 127 127 127 127 127 127 255 127 127 127 127 255 127 127 127 127 127 127 127 127 255 127 127 127 127 127 127 127 127 127 127 127 127 127 127 127 127 127 127 127 127 127 127 127 127 127 127 127 127 127 127 127 127 127 127 127 127 0 127 127 127 127 127 127 127 127 127 127 127 127 127 
127 127 127 127 127 127 127 127 127 127 127 127 127 127 127 127 127 127 127 127 127 127 127 127 127 127 127 127 127 127 127 127 127 127 127 127 127 127 127 127 127 127 127 127 127 127 127 127 127 127 127 127 127 127 127 127 127 127 127 127 127 127 127 127 127 127 127 127 0 127 127 127 127 127 127 127 127 127 127 127 127 127 127 127 127 127 127 127 127 127 127 127 127 127 127 127 127 127 127 127 
127 127 127 127 127 255 127 127 127 127 127 127 127 127 127 127 127 127 127 127 127 127 255 255 127 127 127 127 255 127 127 127 255 127 127 127 127 127 127 127 127 127 127 127 127 127 127 127 127 127 127 127 127 127 127 127 127 127 127 127 127 127 127 127 127 127 127 127 127 127 127 127 127 127 127 127 127 127 127 127 127 127 127 0 127 127 127 127 127 127 127 127 127 127 127 127 127 127 127 127 
127 127 127 127 127 127 127 127 127 127 127 127 127 127 127 127 127 127 127 127 127 127 127 127 127 127 127 255 127 127 127 127 127 127 127 127 127 127 127 127 127 127 127 127 127 127 127 127 127 127 127 127 127 127 127 127 0 127 127 127 127 127 127 127 127 127 127 127 127 0 127 127 127 127 127 127 127 127 0 127 127 127 127 127 127 0 127 127 127 127 127 127 127 0 127 127 127 127 127 127 
127 127 127 127 127 127 127 127 127 127 127 127 127 127 127 127 127 127 127 127 127 127 127 127 127 127 255 255 127 127 127 127 127 127 127 127 127 127 127 127 127 127 127 127 127 127 127 127 127 127 127 127 127 0 127 127 127 127 127 127 127 127 127 127 127 127 127 127 127 127 127 127 127 127 127 127 127 127 127 127 127 0 127 127 127 127 127 127 127 0 127 127 127 127 127 127 127 127 127 127 
127 127 127 127 127 127 255 127 127 255 127 127 127 127 127 127 127 127 127 127 127 127 127 127 127 127 127 127 127 127 127 127 127 127 127 127 127 127 127 127 127 127 127 127 127 127 127 127 127 127 127 127 127 127 127 127 127 127 127 127 127 127 127 127 127 127 127 127 127 127 127 127 127 127 127 127 127 127 127 127 127 127 127 127 127 127 127 127 127 127 127 127 127 127 127 127 127 127 127 127 
127 127 127 127 127 127 127 127 127 127 127 127 127 127 127 127 127 127 127 127 127 127 127 127 127 255 255 127 127 127 255 255 127 127 127 127 255 127 127 127 127 127 127 127 127 127 127 127 127 127 127 0 127 127 127 127 127 127 127 127 127 127 127 127 127 127 127 127 127 127 0 127 127 127 127 127 127 127 0 127 127 127 127 127 127 127 127 127 127 127 127 127 127 127 127 127 127 127 127 127 
127 127 127 127 255 127 127 127 127 127 127 127 255 127 127 127 127 255 127 127 127 127 127 127 127 127 127 127 127 127 127 127 127 127 127 127 127 127 127 127 127 127 127 127 127 127 127 255 127 127 127 127 127 127 127 127 127 127 127 127 127 127 127 127 127 127 127 127 127 127 127 127 127 127 127 127 0 127 127 127 127 127 127 127 127 127 127 0 127 127 127 127 127 127 127 127 127 127 127 127 
127 127 255 127 127 127 127 127 127 127 127 127 255 127 127 127 255 127 127 127 127 127 127 127 127 127 127 127 127 127 127 127 127 127 255 127 127 127 127 255 127 127 127 127 127 127 127 127 127 127 0 127 127 127 127 127 127 127 127 127 127 127 127 127 127 127 127 127 127 127 127 127 127 127 127 127 127 127 127 127 127 127 127 127 127 127 0 127 127 127 127 127 127 127 127 127 127 127 127 127 
127 127 127 127 127 127 255 127 127 127 127 127 127 255 127 127 127 127 127 127 127 127 127 127 127 127 127 127 127 127 127 127 127 127 127 127 127 127 127 127 127 255 127 127 127 255 127 127 127 127 127 127 0 127 127 127 127 127 127 127 127 127 127 127 127 127 127 127 127 127 127 127 127 127 127 127 127 127 127 127 127 127 0 127 127 127 127 127 127 0 127 127 127 127 127 127 127 127 127 127 
127 127 127 127 127 127 127 127 127 127 127 127 127 127 127 127 127 127 127 127 127 127 127 127 127 127 127 127 127 127 127 127 127 127 255 127 127 127 127 127 127 255 127 127 127 127 127 127 127 127 127 127 127 127 127 127 127 127 127 127 0 127 127 127 127 127 127 127 127 127 127 127 127 127 127 127 127 127 127 0 127 127 0 127 127 127 127 127 0 127 127 255 127 127 127 127 127 127 127 127 
127 127 127 127 127 127 127 127 127 127 127 127 127 127 127 127 127 127 127 127 127 127 127 127 127 127 127 127 127 127 127 127 127 127 127 127 127 127 127 127 127 127 127 127 127 127 127 127 127 127 0 127 127 127 127 127 127 127 127 127 127 127 127 127 127 127 127 127 127 127 127 127 127 127 127 127 127 127 127 127 127 127 127 127 127 127 127 127 127 127 127 127 127 127 127 127 127 127 127 127 
127 127 127 127 127 127 127 127 127 127 127 127 127 127 127 127 127 127 127 127 127 127 127 127 127 127 127 127 127 127 127 127 127 127 127 127 127 127 127 127 127 255 127 127 127 127 127 127 127 127 127 127 127 127 127 127 127 127 127 127 127 127 0 127 127 127 127 127 127 127 127 127 127 127 127 127 127 127 127 127 127 127 127 127 127 127 127 127 127 127 127 127 127 127 127 127 127 127 127 255 
127 127 127 127 127 127 127 127 127 127 127 127 127 127 127 127 127 127 127 127 127 127 127 127 127 127 127 127 127 127 127 127 127 127 127 127 127 127 127 127 127 127 127 127 127 127 127 127 127 127 127 127 127 127 127 127 127 127 127 127 127 127 127 0 127 127 127 127 127 127 127 127 127 127 127 127 0 127 127 127 127 127 127 127 127 127 127 127 127 127 127 127 127 127 127 127 127 127 127 127 
127 127 127 127 127 127 127 127 127 127 127 127 127 127 127 127 127 255 127 127 127 127 127 127 127 127 127 127 127 127 127 127 127 127 127 127 127 127 127 127 127 127 127 127 127 255 127 127 127 127 127 127 127 127 127 127 127 0 127 127 127 127 127 127 127 127 127 127 127 127 127 127 127 127 127 127 127 127 127 127 127 127 127 127 127 127 127 127 127 127 255 127 127 127 127 127 127 127 127 127 
127 127 127 127 127 127 127 255 255 127 127 255 127 127 127 127 127 127 127 127 127 127 127 255 127 127 127 127 127 127 127 127 127 127 127 127 127 127 127 127 127 127 127 127 127 127 127 127 127 127 127 127 127 127 127 127 127 127 127 127 127 127 127 127 127 127 127 127 127 127 127 127 127 127 127 127 0 127 127 127 127 127 127 127 127 127 127 127 127 127 127 127 127 127 127 127 127 127 127 127 
127 127 127 127 127 127 127 127 127 127 127 127 127 127 127 127 255 127 127 127 127 127 127 127 127 127 255 127 127 127 127 127 127 127 127 127 127 127 127 127 127 127 127 127 255 127 127 127 127 127 127 127 127 127 127 127 0 0 127 127 127 127 127 127 127 127 127 127 0 127 127 127 127 127 127 127 127 127 127 0 127 127 127 127 127 127 127 127 127 127 127 127 127 127 127 127 127 127 127 127 
127 127 127 127 127 127 127 127 127 127 127 127 127 127 127 127 127 127 127 127 127 127 127 127 127 127 127 127 127 127 127 127 127 127 127 127 127 127 127 127 127 127 127 127 127 127 127 127 127 127 127 127 127 127 127 127 127 127 0 127 127 127 127 127 127 127 127 127 127 127 127 127 127 127 127 127 127 127 127 127 127 127 127 127 127 127 127 255 127 127 127 127 127 127 127 127 127 127 127 127 
127 127 127 127 127 127 127 127 127 127 127 127 127 127 127 127 127 127 127 127 127 127 127 127 127 127 127 127 127 255 127 127 127 127 127 127 127 127 127 127 127 127 127 255 127 127 127 127 255 127 127 0 127 127 127 127 127 127 127 127 127 127 127 127 127 127 127 127 127 127 127 127 127 127 127 127 0 127 127 127 127 127 127 127 127 127 127 127 127 127 127 127 127 127 127 127 127 127 127 127 
127 127 255 127 127 127 127 127 127 127 127 127 127 127 127 127 127 127 127 127 127 255 127 127 127 127 127 127 127 127 255 127 127 127 127 255 127 127 127 127 127 127 127 127 127 127 127 127 255 127 127 127 127 127 127 127 127 127 127 127 127 0 127 127 127 127 127 127 127 127 127 127 127 127 127 127 127 0 127 127 127 127 127 127 127 127 127 127 127 127 127 127 127 127 127 127 127 127 127 127 
127 127 255 127 127 127 255 127 127 127 127 127 127 127 127 127 127 127 127 127 127 255 127 127 127 127 127 127 127 127 127 127 127 127 127 127 127 127 127 127 127 127 127 127 127 127 127 127 127 127 127 0 127 127 127 127 127 127 127 127 127 127 127 0 127 127 127 0 127 127 127 127 127 127 127 127 127 127 127 127 127 127 127 127 127 127 255 127 127 127 127 127 127 127 127 127 255 127 255 127 
127 127 127 127 127 255 127 127 127 127 127 127 127 127 127 127 255 127 127 127 127 255 127 255 127 127 127 127 127 127 127 127 127 255 127 127 127 127 127 127 127 127 127 127 127 127 127 127 127 127 127 127 127 127 127 127 0 127 127 127 127 127 127 127 127 127 127 127 127 127 127 127 127 127 127 0 127 0 127 127 127 127 127 127 127 255 127 127 127 127 127 127 255 127 127 127 127 127 127 127 
127 127 127 127 127 127 127 127 255 127 127 127 127 127 127 127 127 127 127 127 127 127 127 127 127 127 127 127 127 127 127 127 127 255 127 127 127 127 127 127 255 127 127 127 127 127 127 127 127 127 127 127 127 127 127 127 127 127 127 127 127 127 127 127 127 127 127 127 127 127 127 127 127 127 127 127 127 127 127 127 127 127 127 127 255 127 127 127 127 127 127 127 127 127 127 127 127 127 127 127 
127 127 127 255 127 127 127 127 127 127 127 127 127 127 127 127 127 127 127 255 127 127 127 127 127 127 127 127 127 127 127 127 127 127 127 127 127 127 127 127 127 127 255 127 127 127 127 127 127 127 127 127 127 127 0 127 127 127 127 127 127 127 127 127 127 127 127 127 127 127 127 127 127 127 127 127 127 127 127 127 127 127 127 127 127 255 127 127 127 127 127 127 127 127 127 255 127 127 127 127 
127 127 127 127 127 127 255 255 127 127 127 127 127 127 127 127 127 127 127 127 127 255 127 127 127 127 127 127 127 127 127 127 127 255 127 127 127 127 255 127 127 127 127 127 127 127 127 127 127 127 127 127 0 127 127 127 127 127 127 127 127 127 127 127 127 127 127 0 127 127 127 127 127 0 127 127 127 255 127 127 127 127 127 127 127 127 127 127 127 127 127 127 127 127 127 127 127 255 127 127 
127 127 127 127 127 127 127 127 127 127 127 127 127 127 127 127 127 127 127 127 127 127 127 127 127 127 127 127 127 127 255 127 127 127 127 127 127 127 127 127 127 127 127 127 127 127 127 127 127 127 127 127 127 127 127 127 127 127 127 127 127 127 0 127 127 127 0 127 127 0 127 127 127 127 127 127 127 127 127 127 127 127 127 127 127 127 127 127 127 127 127 127 127 127 127 127 127 127 127 127 
127 127 127 127 127 127 127 127 255 127 127 127 127 127 127 127 127 127 127 127 127 127 127 127 127 127 127 127 127 127 127 127 127 127 127 127 127 127 127 127 127 127 127 127 127 127 127 127 127 127 127 127 127 127 127 127 127 127 127 127 127 127 127 127 127 127 127 127 127 127 127 127 127 127 127 127 127 127 127 127 127 127 127 127 127 127 127 127 127 127 127 127 127 127 127 127 127 127 127 127 
127 127 127 127 255 127 127 127 127 127 127 127 127 127 127 127 127 127 127 255 127 127 127 127 127 127 127 127 127 127 127 127 127 127 127 127 127 127 127 127 127 127 127 127 127 127 127 255 127 127 127 127 127 127 0 127 127 127 127 127 127 127 127 0 127 127 127 127 127 127 127 127 127 127 127 127 127 127 127 255 127 255 127 127 127 127 255 127 127 255 127 127 127 127 127 127 127 127 127 127 
127 255 127 127 127 127 127 127 255 127 127 127 127 127 127 127 127 127 127 127 127 127 255 127 255 127 127 127 127 127 127 127 127 127 127 127 127 127 127 127 127 127 127 127 127 127 127 127 127 127 127 127 127 127 127 127 127 0 127 127 127 127 127 127 127 127 127 127 0 127 127 127 127 127 127 127 127 127 127 127 255 127 127 127 127 127 127 127 127 127 127 127 127 127 127 127 127 127 127 127 
127 127 127 127 127 127 127 127 127 127 127 255 127 127 127 127 127 127 127 127 127 127 127 127 255 127 127 127 127 127 127 127 127 127 127 127 127 127 127 127 127 127 127 127 127 255 127 127 127 127 127 127 127 127 127 127 127 127 127 127 127 127 127 127 127 127 127 127 127 127 127 127 127 127 127 127 127 127 127 127 127 127 127 127 127 127 127 127 127 127 127 127 127 127 127 127 127 127 127 127 
127 127 127 127 127 127 127 255 127 127 127 127 255 127 127 127 127 127 127 127 127 127 127 127 127 127 127 127 127 127 127 127 127 127 127 127 127 127 127 255 127 127 127 127 255 127 127 127 127 127 127 127 127 127 127 127 127 127 127 127 127 127 127 127 127 127 127 127 127 127 127 127 127 127 127 127 127 127 127 127 127 127 127 127 127 127 127 127 127 127 127 255 127 127 127 127 127 127 127 127 
127 127 127 127 127 127 127 127 127 127 127 127 127 127 127 127 127 127 127 127 127 127 127 127 127 127 127 127 127 127 127 127 127 127 127 127 127 127 127 127 127 127 127 127 127 127 127 127 127 127 127 127 127 127 127 127 127 127 127 127 127 127 127 127 127 127 127 127 127 127 127 127 127 127 127 127 127 127 127 127 127 127 127 127 127 127 127 127 127 127 127 127 127 127 127 127 127 127 127 127 
127 127 127 127 255 127 255 127 255 127 127 127 127 127 127 127 127 127 127 127 127 127 127 127 127 127 127 127 127 127 127 127 127 127 127 127 127 127 127 127 127 127 127 127 127 127 127 127 127 127 127 127 127 127 127 127 127 127 127 127 127 127 127 127 127 127 127 127 127 127 127 127 127 127 127 127 127 127 127 127 127 127 127 127 127 127 127 127 127 127 127 255 127 127 127 127 127 127 127 127 
127 127 127 255 127 127 127 127 127 127 127 127 127 127 127 127 127 127 127 127 127 127 255 127 127 127 127 127 127 127 255 127 127 127 127 127 127 127 127 127 127 127 127 127 127 127 127 127 127 127 127 127 127 0 127 127 127 127 127 127 0 0 127 127 127 127 127 127 127 127 127 127 127 127 127 127 127 127 255 255 127 127 127 127 127 127 127 127 127 127 127 127 127 127 127 127 127 127 127 127 
127 127 127 127 127 127 127 127 127 127 127 127 127 127 127 127 127 127 255 127 127 127 127 127 127 127 127 127 127 127 127 127 127 127 127 127 127 127 127 127 127 127 127 127 127 127 127 127 127 127 127 127 127 127 127 127 127 127 127 127 127 127 127 0 127 127 127 127 127 127 255 127 127 127 127 127 127 127 127 127 127 127 127 127 127 255 127 127 127 127 127 127 255 127 127 127 127 127 127 127 
127 127 127 127 127 127 127 127 127 127 127 127 127 127 127 127 127 255 127 127 255 127 127 127 127 127 127 127 127 127 127 127 127 127 127 127 127 127 127 127 127 127 127 127 127 127 127 127 127 127 127 127 127 127 127 0 127 127 127 127 127 127 127 127 127 127 127 127 127 255 127 127 127 127 127 127 127 127 127 127 127 127 127 127 127 127 127 127 127 127 127 127 255 127 127 127 127 255 127 127 
127 127 127 127 127 127 127 127 127 127 127 127 127 127 127 127 127 127 127 127 127 127 127 127 127 127 127 127 255 127 127 127 127 127 127 127 127 127 255 127 127 127 255 127 127 127 127 127 127 127 127 127 127 127 127 127 127 127 127 127 127 127 127 127 127 127 127 127 127 127 127 127 127 127 127 127 127 127 127 127 127 127 127 127 127 127 127 127 255 127 127 127 127 127 127 127 127 127 127 127 
127 127 127 127 127 127 127 127 255 127 127 127 127 127 127 127 127 127 127 127 127 127 127 127 127 127 127 127 127 127 127 127 127 127 127 255 127 127 127 127 127 127 127 255 127 127 127 127 127 127 127 0 127 127 127 127 127 127 127 127 127 127 127 127 127 127 127 127 127 127 127 127 127 127 127 127 127 127 127 127 127 127 127 127 127 127 127 127 127 127 255 127 127 127 127 127 127 127 127 127 
127 127 127 127 127 127 127 127 255 127 127 127 127 127 127 127 127 127 127 127 127 255 127 127 127 127 127 127 127 127 127 127 255 127 127 127 127 127 127 127 127 127 127 127 127 127 127 127 127 127 127 127 127 127 127 127 127 127 127 127 127 127 127 127 127 127 127 127 127 127 127 127 127 127 127 127 127 127 127 127 127 127 127 127 127 127 127 127 127 127 127 127 127 127 127 127 255 127 127 127 
127 127 127 127 127 127 127 127 255 127 127 127 127 127 127 127 127 127 127 127 127 127 127 127 127 127 127 127 127 127 127 127 127 127 127 127 127 127 127 127 127 127 127 127 127 127 127 127 127 127 127 127 127 127 127 127 127 127 127 127 127 127 255 127 255 127 255 127 127 127 127 255 127 127 127 127 127 127 127 127 127 127 127 127 127 127 255 255 127 127 127 127 255 127 127 127 255 127 127 127 
127 127 127 127 127 127 127 127 127 127 127 127 127 127 127 127 127 127 127 127 255 127 127 127 127 127 127 127 127 127 127 127 127 127 127 127 127 127 127 127 127 127 127 127 127 127 127 127 127 127 127 127 127 127 127 127 127 127 127 127 127 127 255 127 127 127 127 127 127 127 127 127 127 127 127 127 127 127 127 127 127 127 127 127 127 127 127 127 127 127 127 127 127 127 127 127 255 127 127 127 
127 255 127 127 127 127 127 127 127 127 127 127 255 127 127 127 127 255 127 127 127 127 127 127 127 127 127 127 127 127 127 127 127 127 127 127 127 127 127 127 127 127 127 127 127 127 127 127 127 127 127 127 127 127 127 127 127 127 127 255 127 127 127 127 255 127 127 255 127 127 127 127 127 127 127 127 127 127 127 127 255 255 127 127 127 127 127 127 127 127 127 255 127 127 127 127 127 127 127 255 
127 255 127 127 127 127 127 127 127 127 127 255 127 127 127 127 127 127 127 127 127 127 127 127 127 127 127 127 127 127 127 127 127 255 127 127 127 127 127 127 127 127 127 127 127 127 127 127 127 127 127 127 127 127 127 127 127 127 127 127 127 127 127 127 127 127 127 127 127 127 127 127 127 127 127 127 127 127 127 127 127 127 127 127 127 127 127 127 127 127 127 127 127 127 255 127 127 127 127 127 
127 127 127 127 127 127 127 127 127 127 127 127 127 127 127 127 127 127 127 127 127 127 127 127 127 127 127 127 127 127 127 127 127 127 127 127 127 127 127 127 127 127 127 127 127 127 127 127 127 127 127 127 127 127 127 127 127 127 127 127 255 127 127 127 127 127 127 255 127 127 127 127 127 127 127 255 127 127 127 127 127 127 127 127 127 127 127 127 127 127 127 127 127 127 127 127 127 127 127 127 
127 127 127 127 255 127 127 127 127 127 127 255 127 127 127 127 127 127 127 127 127 255 255 127 127 127 255 127 127 127 127 127 127 127 127 127 127 127 127 127 127 127 127 127 127 127 127 127 127 127 127 127 127 127 127 127 127 127 127 127 127 127 127 127 127 127 127 127 127 127 127 127 127 127 127 127 127 127 127 127 255 255 127 127 127 127 127 127 127 127 127 127 127 127 127 127 127 127 255 127 
127 127 127 127 127 127 127 127 127 127 127 127 127 127 127 127 127 127 127 127 127 127 127 127 127 127 127 127 127 127 127 127 127 127 127 127 127 127 127 127 127 127 127 255 127 127 127 127 127 127 127 127 127 127 127 127 255 127 127 127 255 127 127 127 127 127 127 127 127 127 255 127 127 127 127 127 127 127 127 127 127 127 127 127 127 127 127 127 127 127 127 127 127 127 127 127 127 127 127 127 
127 127 127 127 127 127 127 127 127 127 127 127 127 127 127 127 127 127 127 127 127 127 127 127 127 127 127 255 127 127 127 127 127 127 127 255 127 127 127 127 127 127 127 127 127 127 127 127 127 127 127 127 127 127 127 127 127 127 127 127 127 127 127 127 127 127 127 127 127 127 127 127 127 127 127 127 127 127 127 127 127 127 127 127 127 127 127 127 127 127 127 127 255 127 127 127 127 127 255 127 
127 127 127 127 127 127 127 127 127 127 127 127 127 127 255 127 127 255 127 127 127 127 127 127 127 127 127 255 127 255 255 127 127 127 255 127 127 127 127 127 127 127 127 127 127 127 127 127 127 127 127 127 127 127 127 127 127 127 127 127 127 127 127 127 127 127 127 127 127 127 127 127 127 127 127 127 127 127 127 127 127 127 127 127 127 127 127 127 127 127 127 127 127 255 127 127 127 127 127 127 
